<svg xmlns="http://www.w3.org/2000/svg" version="1.1" xmlns:xlink="http://www.w3.org/1999/xlink" xmlns:svgjs="http://svgjs.dev/svgjs" width="1000" height="186" viewBox="0 0 1000 186"><g transform="matrix(1,0,0,1,-0.6060605616575003,-0.2141651660282804)"><svg viewBox="0 0 396 74" data-background-color="#000000" preserveAspectRatio="xMidYMid meet" height="186" width="1000" xmlns="http://www.w3.org/2000/svg" xmlns:xlink="http://www.w3.org/1999/xlink"><g id="tight-bounds" transform="matrix(1,0,0,1,0.24000001758366807,0.08520549616179096)"><svg viewBox="0 0 395.52 73.82958753045111" height="73.82958753045111" width="395.52"><g><svg viewBox="0 0 518.7920307771516 96.84011338582675" height="73.82958753045111" width="395.52"><g><rect width="6.319205039168502" height="70.42280314960628" x="412.0624215685039" y="13.208655118110237" fill="#89939e" opacity="1" stroke-width="0" stroke="transparent" fill-opacity="1" class="rect-o-0" data-fill-palette-color="primary" rx="1%" id="o-0" data-palette-color="#89939e"></rect></g><g transform="matrix(1,0,0,1,0,13.383836220472439)"><svg viewBox="0 0 395.52 70.07244094488188" height="70.07244094488188" width="395.52"><g id="textblocktransform"><svg viewBox="0 0 395.52 70.07244094488188" height="70.07244094488188" width="395.52" id="textblock"><g><svg viewBox="0 0 395.52 70.07244094488188" height="70.07244094488188" width="395.52"><g transform="matrix(1,0,0,1,0,0)"><svg width="395.52" viewBox="1.350000023841858 -35.5 204.42999267578125 36" height="70.07244094488188" data-palette-color="#89939e"><g class="undefined-text-0" data-fill-palette-color="primary" id="text-0"><path d="M10.75 0.5L10.75 0.5Q8.15 0.5 6.35-0.25 4.55-1 3.43-2.85 2.3-4.7 1.83-8.05 1.35-11.4 1.35-16.55L1.35-16.55Q1.35-22.5 2.1-26.23 2.85-29.95 4.23-31.98 5.6-34 7.63-34.75 9.65-35.5 12.15-35.5L12.15-35.5Q14.7-35.5 16.13-34.7 17.55-33.9 17.55-32.8L17.55-32.8Q17.55-32.05 17.35-31.28 17.15-30.5 16.95-29.9L16.95-29.9Q16.3-30.4 15.28-30.7 14.25-31 13.1-31L13.1-31Q11.2-31 9.88-30.28 8.55-29.55 7.75-27.95 6.95-26.35 6.6-23.63 6.25-20.9 6.25-16.9L6.25-16.9Q6.25-12.7 6.53-10.13 6.8-7.55 7.38-6.23 7.95-4.9 8.85-4.45 9.75-4 10.85-4L10.85-4Q11.65-4 12.15-4.17 12.65-4.35 12.95-4.58 13.25-4.8 13.35-4.95L13.35-4.95 13.35-16.95 10.15-16.95 10.15-19.9Q10.15-20.75 11.15-20.75L11.15-20.75 17.65-20.75 17.6-1.5Q17-1.05 16-0.58 15-0.1 13.73 0.2 12.45 0.5 10.75 0.5ZM22.05 0.1L22.05 0.1Q21.65 0.1 20.82 0.05 20 0 19.2-0.1L19.2-0.1 27.95-34.3Q28.1-35.15 29.7-35.15L29.7-35.15Q30.3-35.15 30.87-35.1 31.45-35.05 31.85-34.95L31.85-34.95 40.6-0.8Q40.7-0.35 40.32-0.13 39.95 0.1 38.6 0.1L38.6 0.1Q38.15 0.1 37.47 0.08 36.8 0.05 35.9 0L35.9 0 31.55-19Q31.25-20.6 30.9-22.3 30.55-24 30.32-25.65 30.1-27.3 29.95-28.6L29.95-28.6Q29.85-27.3 29.57-25.65 29.3-24 29-22.3 28.7-20.6 28.35-19L28.35-19 24.2-0.8Q24.1-0.35 23.77-0.13 23.45 0.1 22.05 0.1ZM36.25-8.55L24.5-8.55 24.5-12.7 36.25-12.7 36.25-8.55ZM49.14 0L42.8 0 42.8-34.05Q42.8-34.5 43.09-34.75 43.39-35 44.14-35L44.14-35 49.05-35Q51.49-35 53.34-34.27 55.2-33.55 56.39-31.8 57.59-30.05 58.2-26.98 58.8-23.9 58.8-19.3L58.8-19.3Q58.8-13.95 58.17-10.25 57.55-6.55 56.34-4.3 55.14-2.05 53.34-1.03 51.55 0 49.14 0L49.14 0ZM47.39-30.8L47.39-4.35 49.24-4.35Q50.09-4.35 50.87-4.88 51.64-5.4 52.24-6.98 52.84-8.55 53.22-11.63 53.59-14.7 53.59-19.75L53.59-19.75Q53.59-23.2 53.3-25.35 52.99-27.5 52.47-28.7 51.95-29.9 51.12-30.35 50.3-30.8 49.24-30.8L49.24-30.8 47.39-30.8ZM70.49 0.5L70.49 0.5Q67.89 0.5 66.09-0.25 64.29-1 63.17-2.85 62.04-4.7 61.57-8.05 61.09-11.4 61.09-16.55L61.09-16.55Q61.09-22.5 61.84-26.23 62.59-29.95 63.97-31.98 65.34-34 67.37-34.75 69.39-35.5 71.89-35.5L71.89-35.5Q74.44-35.5 75.87-34.7 77.29-33.9 77.29-32.8L77.29-32.8Q77.29-32.05 77.09-31.28 76.89-30.5 76.69-29.9L76.69-29.9Q76.04-30.4 75.02-30.7 73.99-31 72.84-31L72.84-31Q70.94-31 69.62-30.28 68.29-29.55 67.49-27.95 66.69-26.35 66.34-23.63 65.99-20.9 65.99-16.9L65.99-16.9Q65.99-12.7 66.27-10.13 66.54-7.55 67.12-6.23 67.69-4.9 68.59-4.45 69.49-4 70.59-4L70.59-4Q71.39-4 71.89-4.17 72.39-4.35 72.69-4.58 72.99-4.8 73.09-4.95L73.09-4.95 73.09-16.95 69.89-16.95 69.89-19.9Q69.89-20.75 70.89-20.75L70.89-20.75 77.39-20.75 77.34-1.5Q76.74-1.05 75.74-0.58 74.74-0.1 73.47 0.2 72.19 0.5 70.49 0.5ZM92.49 0L80.74 0 80.74-34.1Q80.74-34.1 80.87-34.55 80.99-35 81.59-35L81.59-35 93.59-35Q93.59-33.15 93.57-32.3 93.54-31.45 93.37-31.18 93.19-30.9 92.74-30.9L92.74-30.9 85.29-30.9 85.29-4.1 93.34-4.1Q93.34-2.2 93.29-1.33 93.24-0.45 93.09-0.23 92.94 0 92.49 0L92.49 0ZM91.49-16.9L81.24-16.9 81.24-21.1 92.34-21.1Q92.34-18.5 92.24-17.7 92.14-16.9 91.49-16.9L91.49-16.9ZM101.39 0L101.39 0 101.39-34.4Q101.39-34.4 101.51-34.48 101.64-34.55 102.29-34.55L102.29-34.55 105.09-34.55Q105.74-34.55 105.84-34.48 105.94-34.4 105.94-34.4L105.94-34.4 105.94-0.85Q105.94-0.45 105.74-0.28 105.54-0.1 104.59-0.05 103.64 0 101.39 0ZM111.84-30.7L94.84-30.7 94.84-34.1Q94.84-35 95.69-35L95.69-35 112.69-35 112.69-31.6Q112.69-31.1 112.51-30.9 112.34-30.7 111.84-30.7L111.84-30.7Z" fill="#89939e" data-fill-palette-color="primary"></path><path d="M123.44 0.5L123.44 0.5Q120.84 0.5 119.04-0.25 117.24-1 116.12-2.85 114.99-4.7 114.52-8.05 114.04-11.4 114.04-16.55L114.04-16.55Q114.04-22.5 114.79-26.23 115.54-29.95 116.92-31.98 118.29-34 120.32-34.75 122.34-35.5 124.84-35.5L124.84-35.5Q127.39-35.5 128.82-34.7 130.24-33.9 130.24-32.8L130.24-32.8Q130.24-32.05 130.04-31.28 129.84-30.5 129.64-29.9L129.64-29.9Q128.99-30.4 127.97-30.7 126.94-31 125.79-31L125.79-31Q123.89-31 122.57-30.28 121.24-29.55 120.44-27.95 119.64-26.35 119.29-23.63 118.94-20.9 118.94-16.9L118.94-16.9Q118.94-12.7 119.22-10.13 119.49-7.55 120.07-6.23 120.64-4.9 121.54-4.45 122.44-4 123.54-4L123.54-4Q124.34-4 124.84-4.17 125.34-4.35 125.64-4.58 125.94-4.8 126.04-4.95L126.04-4.95 126.04-16.95 122.84-16.95 122.84-19.9Q122.84-20.75 123.84-20.75L123.84-20.75 130.34-20.75 130.29-1.5Q129.69-1.05 128.69-0.58 127.69-0.1 126.42 0.2 125.14 0.5 123.44 0.5ZM139.49-13.95L135.09-13.95Q134.29-13.95 134.21-14.23 134.14-14.5 134.14-15.15L134.14-15.15 134.14-34.05Q134.14-34.15 134.19-34.58 134.24-35 134.84-35L134.84-35 139.39-35Q142.54-35 144.64-34.02 146.74-33.05 147.76-30.85 148.79-28.65 148.79-25L148.79-25Q148.79-21.8 148.01-19.68 147.24-17.55 145.94-16.3 144.64-15.05 142.99-14.5 141.34-13.95 139.49-13.95L139.49-13.95ZM133.64 0L133.64 0 133.64-34.1Q133.64-34.1 133.74-34.55 133.84-35 134.54-35L134.54-35 137.34-35Q137.99-35 138.09-34.55 138.19-34.1 138.19-34.1L138.19-34.1 138.19-0.9Q138.19-0.45 137.99-0.28 137.79-0.1 136.84-0.05 135.89 0 133.64 0ZM146.94 0.1L146.94 0.1Q146.39 0.1 145.71 0.08 145.04 0.05 144.24 0L144.24 0Q144.04-4.35 143.31-7.25 142.59-10.15 141.71-11.83 140.84-13.5 140.21-14.23 139.59-14.95 139.59-14.95L139.59-14.95Q139.59-14.95 139.46-15.28 139.34-15.6 139.89-15.9L139.89-15.9 142.39-17.35Q143.09-17.35 143.34-16.85L143.34-16.85Q143.34-16.85 144.16-15.98 144.99-15.1 146.09-13.2 147.19-11.3 148.11-8.28 149.04-5.25 149.24-1L149.24-1Q149.29-0.35 148.94-0.13 148.59 0.1 146.94 0.1ZM138.14-31L138.14-18.2 139.99-18.2Q141.19-18.2 141.99-18.85 142.79-19.5 143.24-21.05 143.69-22.6 143.69-25.2L143.69-25.2Q143.69-27.1 143.36-28.4 143.04-29.7 142.31-30.35 141.59-31 140.29-31L140.29-31 138.14-31ZM153.24 0.1L153.24 0.1Q152.84 0.1 152.01 0.05 151.19 0 150.39-0.1L150.39-0.1 159.14-34.3Q159.29-35.15 160.89-35.15L160.89-35.15Q161.49-35.15 162.06-35.1 162.64-35.05 163.04-34.95L163.04-34.95 171.79-0.8Q171.89-0.35 171.51-0.13 171.14 0.1 169.79 0.1L169.79 0.1Q169.34 0.1 168.66 0.08 167.99 0.05 167.09 0L167.09 0 162.74-19Q162.44-20.6 162.09-22.3 161.74-24 161.51-25.65 161.29-27.3 161.14-28.6L161.14-28.6Q161.04-27.3 160.76-25.65 160.49-24 160.19-22.3 159.89-20.6 159.54-19L159.54-19 155.39-0.8Q155.29-0.35 154.96-0.13 154.64 0.1 153.24 0.1ZM167.44-8.55L155.69-8.55 155.69-12.7 167.44-12.7 167.44-8.55ZM180.33 0L173.98 0 173.98-34.05Q173.98-34.5 174.28-34.75 174.58-35 175.33-35L175.33-35 180.23-35Q182.68-35 184.53-34.27 186.38-33.55 187.58-31.8 188.78-30.05 189.38-26.98 189.98-23.9 189.98-19.3L189.98-19.3Q189.98-13.95 189.36-10.25 188.73-6.55 187.53-4.3 186.33-2.05 184.53-1.03 182.73 0 180.33 0L180.33 0ZM178.58-30.8L178.58-4.35 180.43-4.35Q181.28-4.35 182.06-4.88 182.83-5.4 183.43-6.98 184.03-8.55 184.41-11.63 184.78-14.7 184.78-19.75L184.78-19.75Q184.78-23.2 184.48-25.35 184.18-27.5 183.66-28.7 183.13-29.9 182.31-30.35 181.48-30.8 180.43-30.8L180.43-30.8 178.58-30.8ZM204.68 0L192.93 0 192.93-34.1Q192.93-34.1 193.06-34.55 193.18-35 193.78-35L193.78-35 205.78-35Q205.78-33.15 205.76-32.3 205.73-31.45 205.56-31.18 205.38-30.9 204.93-30.9L204.93-30.9 197.48-30.9 197.48-4.1 205.53-4.1Q205.53-2.2 205.48-1.33 205.43-0.45 205.28-0.23 205.13 0 204.68 0L204.68 0ZM203.68-16.9L193.43-16.9 193.43-21.1 204.53-21.1Q204.53-18.5 204.43-17.7 204.33-16.9 203.68-16.9L203.68-16.9Z" fill="#dedede" data-fill-palette-color="secondary"></path></g></svg></g></svg></g></svg></g></svg></g><g transform="matrix(1,0,0,1,434.9240481761763,0)"><svg viewBox="0 0 83.86798260097518 96.84011338582675" height="96.84011338582675" width="83.86798260097518"><g><svg xmlns="http://www.w3.org/2000/svg" xmlns:xlink="http://www.w3.org/1999/xlink" version="1.1" x="0" y="0" viewBox="9.54699993133545 3.2899999618530273 80.906005859375 93.41999816894531" enable-background="new 0 0 100 100" xml:space="preserve" height="96.84011338582675" width="83.86798260097518" class="icon-icon-0" data-fill-palette-color="accent" id="icon-0"><g fill="#dedede" data-fill-palette-color="accent"><path d="M31.112 39.094v21.812L49.999 71.81l18.89-10.903V39.094l-18.89-10.905L31.112 39.094zM60.925 56.308l-10.926 6.307-10.924-6.307V43.692l10.924-6.308 10.926 6.308V56.308z" fill="#dedede" data-fill-palette-color="accent"></path><path d="M49.999 3.29L9.547 26.646v46.709L49.999 96.71l40.454-23.355V26.646L49.999 3.29zM82.19 68.584L49.999 87.169 17.811 68.584v-37.17l32.188-18.585L82.19 31.414V68.584z" fill="#dedede" data-fill-palette-color="accent"></path><path d="M20.368 32.89v34.218l29.631 17.108 29.634-17.108V32.89L49.999 15.782 20.368 32.89zM71.446 62.383l-21.447 12.38-21.444-12.38V37.618l21.444-12.382 21.447 12.382V62.383z" fill="#dedede" data-fill-palette-color="accent"></path></g></svg></g></svg></g></svg></g><defs></defs></svg><rect width="395.52" height="73.82958753045111" fill="none" stroke="none" visibility="hidden"></rect></g></svg></g></svg>