<?xml version="1.0" encoding="utf-8"?><!-- Uploaded to: SVG Repo, www.svgrepo.com, Generator: SVG Repo Mixer Tools -->
<svg width="800px" height="800px" viewBox="0 0 144 144" fill="none" xmlns="http://www.w3.org/2000/svg">
<path d="M132 65.982V108H120V98.484L114 92.484V108H102V98.484L92.946 89.43C88.14 88.932 82.98 88.104 78 87.042V108H66V102.012C66 101.256 65.868 91.722 62.538 82.656C61.644 82.314 60.798 81.972 60 81.618V108H48V102.012C47.994 100.542 47.616 66 24 66H18L12 54L24 48C24 48 30 36 36 36C36.15 36 36.372 36 36.552 36C37.788 32.514 41.088 30 45 30C48.912 30 52.212 32.514 53.448 36C66.252 36 84.102 36 102 36C118.56 36 131.988 49.422 132 65.982Z" fill="#6D4C41"/>
<path opacity="0.3" d="M60 81.618V108H48V102.012C47.994 100.542 47.616 66 24 66V65.958C24 65.958 42 66 54 78C55.224 79.224 57.336 80.448 60 81.618ZM111.474 89.958C107.568 89.958 103.896 89.958 102 89.958C99.264 89.958 96.18 89.766 92.946 89.43L102 98.484V108H114V92.484L111.474 89.958Z" fill="#000000"/>
</svg>